<?xml version="1.0" standalone="no"?>
<!DOCTYPE svg PUBLIC "-//W3C//DTD SVG 20010904//EN"
 "http://www.w3.org/TR/2001/REC-SVG-20010904/DTD/svg10.dtd">
<svg version="1.0" xmlns="http://www.w3.org/2000/svg"
 width="1000.000000pt" height="750.000000pt" viewBox="0 0 1000.000000 750.000000"
 preserveAspectRatio="xMidYMid meet">

<g transform="translate(0.000000,750.000000) scale(0.100000,-0.100000)"
fill="#000000" stroke="none">
<path d="M1700 6595 l0 -75 228 -2 227 -3 0 -2765 0 -2765 -227 -3 -228 -2 0
-75 0 -75 565 0 565 0 0 75 0 75 -227 2 -228 3 -3 2623 c-2 2617 -2 2622 18
2622 11 0 20 -1 20 -2 0 -2 330 -1216 734 -2698 l733 -2695 521 -3 520 -2 16
67 c117 513 1237 5307 1240 5311 3 2 12 2 21 -1 13 -6 15 -270 13 -2614 l-3
-2608 -227 -3 -228 -2 0 -75 0 -75 1270 0 1270 0 0 75 0 75 -227 2 -228 3 0
2765 0 2765 228 3 227 2 0 75 0 75 -1112 0 -1113 0 -500 -2145 c-274 -1180
-502 -2142 -506 -2137 -3 4 -252 961 -553 2127 -301 1166 -549 2128 -552 2138
-5 16 -68 17 -1130 17 l-1124 0 0 -75z"/>
</g>
</svg>
